<svg xmlns="http://www.w3.org/2000/svg" viewBox="0 0 720 720"><defs><style>.cls-1{fill:#781031;}.cls-2{fill:#fff;}</style></defs><title>logo_circle_fav_1</title><g id="Layer_2" data-name="Layer 2"><g id="Layer_1-2" data-name="Layer 1"><circle class="cls-1" cx="360" cy="360" r="360"/><path class="cls-2" d="M603.83,459.16a15.85,15.85,0,0,0-11.47,4.18h0a99,99,0,0,1-52.88,24.9V183.06l16.62-28.34a15.95,15.95,0,0,0-27.51-16.14L384.46,384.32c-9.81-13.25-19.15-25.47-29.25-37.13l81.44-138.87a15.95,15.95,0,0,0-27.51-16.14L332.2,323.38c-33.9-30.86-70.46-45.28-114.49-45.28-41.18,0-79.63,15.87-108.25,44.67A151.73,151.73,0,0,0,65.33,430.49c0,79.7,62.17,146.47,141.52,152,3.52.26,7.17.39,10.86.39a152.44,152.44,0,0,0,26.16-2.25c2.68-.46,5.4-1,8.06-1.62A152.87,152.87,0,0,0,348,509.53c.61-1,1.52-2.49,2.39-4.07l37.3-63.59c13.48,17.18,29.64,35.73,49.17,50.32,21.81,16.3,45,25.57,70.73,28.25v62.44h31.9V520.36a132.79,132.79,0,0,0,74.43-33.51,16,16,0,0,0-10.08-27.69Zm-198.74-47L507.58,237.44V488.31C462.11,482.06,432.9,449.07,405.09,412.19Zm-89.45-60.58-116.13,198A120.47,120.47,0,0,1,97.22,430.49C97.22,362.93,150.15,310,217.71,310,255.64,310,286,322.87,315.64,351.61Zm51.26,62.65-46.15,78.68a120.26,120.26,0,0,1-82.35,56.27l-1.86.3L338.09,376.37c9.56,11.7,18.82,24.3,27.82,36.55Z"/><path class="cls-2" d="M648.05,411.39a22.25,22.25,0,1,0,22.24,22.25A22.27,22.27,0,0,0,648.05,411.39Z"/></g></g></svg>